<?xml version="1.0" encoding="UTF-8"?>
<!-- Generator: Adobe Illustrator 23.0.1, SVG Export Plug-In . SVG Version: 6.00 Build 0)  -->
<!DOCTYPE svg PUBLIC "-//W3C//DTD SVG 1.1//EN" "http://www.w3.org/Graphics/SVG/1.1/DTD/svg11.dtd">
<svg version="1.1" id="artwork" xmlns:x="http://ns.adobe.com/Extensibility/1.0/" xmlns:i="http://ns.adobe.com/AdobeIllustrator/10.0/" xmlns:graph="http://ns.adobe.com/Graphs/1.0/" xmlns="http://www.w3.org/2000/svg" xmlns:xlink="http://www.w3.org/1999/xlink" width="646" height="250" x="0px" y="0px" viewBox="0 0 12931.1 3831.5" style="enable-background:new 0 0 12931.1 3831.5;" xml:space="preserve">
<style type="text/css">
	.st0{fill:#A6A6A6;}
	.st1{fill:#FFFFFF;}
	.st2{fill:url(#SVGID_1_);}
	.st3{fill:url(#SVGID_2_);}
	.st4{fill:url(#SVGID_3_);}
	.st5{fill:url(#SVGID_4_);}
	.st6{opacity:0.2;enable-background:new    ;}
	.st7{opacity:0.12;enable-background:new    ;}
	.st8{opacity:0.25;fill:#FFFFFF;enable-background:new    ;}
</style>
<metadata>
	<sfw xmlns="http://ns.adobe.com/SaveForWeb/1.0/">
		<slices/>
		<sliceSourceBounds bottomLeftOrigin="true" height="3831.5" width="12931.1" x="-6388" y="-1975.7"/>
	</sfw>
</metadata>
<g>
	<g>
		<path d="M12452.2,3831.4H478.9C215.5,3831.4,0,3615.9,0,3352.5V478.9C0,215.5,215.5,0,478.9,0h11973.2    c263.4,0,478.9,215.5,478.9,478.9v2873.6C12931.1,3615.9,12715.6,3831.4,12452.2,3831.4z"/>
	</g>
	<g>
		<g>
			<path class="st0" d="M12452.2,76.6c221.8,0,402.3,180.5,402.3,402.3v2873.6c0,221.8-180.5,402.3-402.3,402.3H478.9     c-221.8,0-402.3-180.5-402.3-402.3V478.9c0-221.8,180.5-402.3,402.3-402.3H12452.2 M12452.2,0H478.9C215.5,0,0,215.5,0,478.9     v2873.6c0,263.4,215.5,478.9,478.9,478.9h11973.2c263.4,0,478.9-215.5,478.9-478.9V478.9C12931.1,215.5,12715.6,0,12452.2,0     L12452.2,0z"/>
		</g>
	</g>
	<path class="st1" d="M6526.5,2083.5c-225.3,0-408.9,171.3-408.9,407.4c0,234.6,183.6,407.4,408.9,407.4   c225.3,0,408.9-172.8,408.9-407.4C6935.4,2254.8,6751.7,2083.5,6526.5,2083.5z M6526.5,2737.8c-123.4,0-229.9-101.8-229.9-246.9   c0-146.6,106.5-246.9,229.9-246.9s229.9,100.3,229.9,246.9C6756.4,2636,6649.9,2737.8,6526.5,2737.8z M5634.4,2083.5   c-225.3,0-408.9,171.3-408.9,407.4c0,234.6,183.6,407.4,408.9,407.4c225.3,0,408.9-172.8,408.9-407.4   C6043.3,2254.8,5859.7,2083.5,5634.4,2083.5z M5634.4,2737.8c-123.5,0-229.9-101.8-229.9-246.9c0-146.6,106.5-246.9,229.9-246.9   c123.4,0,229.9,100.3,229.9,246.9C5864.3,2636,5757.8,2737.8,5634.4,2737.8z M4573.2,2208.5v172.8h413.6   c-12.4,97.2-44.8,168.2-94.1,217.6c-60.2,60.2-154.3,126.5-319.4,126.5c-254.6,0-453.7-205.2-453.7-459.9s199.1-459.9,453.7-459.9   c137.3,0,237.7,54,311.7,123.4l121.9-121.9c-103.4-98.8-240.7-174.4-433.6-174.4c-348.8,0-642,283.9-642,632.7   c0,348.8,293.2,632.7,642,632.7c188.3,0,330.2-61.7,441.3-177.5c114.2-114.2,149.7-274.7,149.7-404.3c0-40.1-3.1-77.2-9.3-108   H4573.2z M8913.1,2342.8c-33.9-91-137.3-259.2-348.8-259.2c-209.9,0-384.2,165.1-384.2,407.4c0,228.4,172.8,407.4,404.3,407.4   c186.7,0,294.7-114.2,339.5-180.5l-138.9-92.6c-46.3,67.9-109.6,112.6-200.6,112.6c-91.1,0-155.9-41.7-197.5-123.4l544.7-225.3   L8913.1,2342.8z M8357.5,2478.6c-4.6-157.4,121.9-237.6,212.9-237.6c71,0,131.2,35.5,151.2,86.4L8357.5,2478.6z M7914.6,2873.6h179   V1676.1h-179V2873.6z M7621.4,2174.6h-6.2c-40.1-47.8-117.3-91-214.5-91c-203.7,0-390.4,179-390.4,408.9   c0,228.4,186.7,405.9,390.4,405.9c97.2,0,174.4-43.2,214.5-92.6h6.2v58.6c0,155.9-83.3,239.2-217.6,239.2   c-109.6,0-177.5-78.7-205.2-145.1l-155.9,64.8c44.8,108,163.6,240.7,361.1,240.7c209.9,0,387.3-123.4,387.3-424.4v-731.5h-169.8   V2174.6z M7416.2,2737.8c-123.4,0-226.8-103.4-226.8-245.4c0-143.5,103.4-248.4,226.8-248.4c121.9,0,217.6,104.9,217.6,248.4   C7633.8,2634.4,7538.1,2737.8,7416.2,2737.8z M9751.6,1676.1h-428.3v1197.5H9502v-453.7h249.6c198.1,0,392.8-143.4,392.8-371.9   C10144.4,1819.6,9949.7,1676.1,9751.6,1676.1z M9756.2,2253.3H9502v-410.5h254.2c133.6,0,209.5,110.6,209.5,205.2   C9965.7,2140.8,9889.8,2253.3,9756.2,2253.3z M10860.8,2081.3c-129.4,0-263.4,57-318.9,183.3l158.7,66.2   c33.9-66.2,97-87.8,163.3-87.8c92.4,0,186.4,55.5,188,154.1v12.3c-32.4-18.5-101.7-46.2-186.4-46.2c-171,0-345.1,94-345.1,269.6   c0,160.2,140.2,263.4,297.3,263.4c120.2,0,186.4-53.9,228-117.1h6.2v92.4h172.5v-459.1   C11224.3,2199.9,11065.6,2081.3,10860.8,2081.3z M10839.2,2737.6c-58.5,0-140.2-29.3-140.2-101.7c0-92.4,101.7-127.9,189.5-127.9   c78.6,0,115.5,17,163.3,40.1C11037.9,2659,10942.4,2737.6,10839.2,2737.6z M11852.9,2107.5l-204.9,519.2h-6.2l-212.6-519.2h-192.6   l318.9,725.6l-181.8,403.6h186.4l491.4-1129.2H11852.9z M10243,2873.6h178.7V1676.1H10243V2873.6z"/>
	<g>
		
			<linearGradient id="SVGID_1_" gradientUnits="userSpaceOnUse" x1="2088.0981" y1="3139.1785" x2="480.5804" y2="1531.6605" gradientTransform="matrix(1 0 0 -1 0 3973.4558)">
			<stop offset="0" style="stop-color:#00A0FF"/>
			<stop offset="6.574450e-03" style="stop-color:#00A1FF"/>
			<stop offset="0.2601" style="stop-color:#00BEFF"/>
			<stop offset="0.5122" style="stop-color:#00D2FF"/>
			<stop offset="0.7604" style="stop-color:#00DFFF"/>
			<stop offset="1" style="stop-color:#00E3FF"/>
		</linearGradient>
		<path class="st2" d="M999.6,722c-27.9,29.5-44.3,75.3-44.3,134.6V2975c0,59.4,16.5,105.1,44.3,134.6l7.1,6.9l1186.7-1186.7v-14    v-14L1006.6,715.1L999.6,722z"/>
		
			<linearGradient id="SVGID_2_" gradientUnits="userSpaceOnUse" x1="3240.8472" y1="2057.5891" x2="923.1251" y2="2057.5891" gradientTransform="matrix(1 0 0 -1 0 3973.4558)">
			<stop offset="0" style="stop-color:#FFE000"/>
			<stop offset="0.4087" style="stop-color:#FFBD00"/>
			<stop offset="0.7754" style="stop-color:#FFA500"/>
			<stop offset="1" style="stop-color:#FF9C00"/>
		</linearGradient>
		<path class="st3" d="M2588.9,2325.5l-395.5-395.7v-14v-14l395.6-395.6l8.9,5.1l468.7,266.3c133.9,76.1,133.9,200.5,0,276.6    l-468.7,266.3L2588.9,2325.5z"/>
		
			<linearGradient id="SVGID_3_" gradientUnits="userSpaceOnUse" x1="2378.0627" y1="1837.7941" x2="198.1402" y2="-342.1285" gradientTransform="matrix(1 0 0 -1 0 3973.4558)">
			<stop offset="0" style="stop-color:#FF3A44"/>
			<stop offset="1" style="stop-color:#C31162"/>
		</linearGradient>
		<path class="st4" d="M2597.9,2320.4l-404.6-404.6L999.6,3109.6c44.1,46.7,117,52.5,199.1,5.9L2597.9,2320.4"/>
		
			<linearGradient id="SVGID_4_" gradientUnits="userSpaceOnUse" x1="698.9717" y1="3956.5708" x2="1672.3983" y2="2983.1443" gradientTransform="matrix(1 0 0 -1 0 3973.4558)">
			<stop offset="0" style="stop-color:#32A071"/>
			<stop offset="6.850000e-02" style="stop-color:#2DA771"/>
			<stop offset="0.4762" style="stop-color:#15CF74"/>
			<stop offset="0.8009" style="stop-color:#06E775"/>
			<stop offset="1" style="stop-color:#00F076"/>
		</linearGradient>
		<path class="st5" d="M2597.9,1511.2L1198.6,716.2c-82.1-46.6-154.9-40.8-199.1,5.9l1193.8,1193.8L2597.9,1511.2z"/>
		<g>
			<path class="st6" d="M2589,2311.5l-1390.4,790c-77.8,44.2-147.3,41.2-191.9,1l0,0l-7.1,7.1l0,0l7.1,6.9l0,0     c44.6,40.2,114.1,43.2,191.9-1l1399.3-795.1L2589,2311.5z"/>
			<path class="st7" d="M999.6,3095.6c-27.9-29.5-44.3-75.3-44.3-134.6v14c0,59.3,16.5,105.1,44.3,134.6l7.1-7.1L999.6,3095.6z"/>
		</g>
		<path class="st7" d="M3066.5,2040.1L2589,2311.5l8.9,8.9l468.7-266.3c66.9-38,100.4-88.1,100.4-138.3l0,0    C3161.3,1961.2,3127.3,2005.6,3066.5,2040.1z"/>
		<path class="st8" d="M1198.6,730.2l1867.9,1061.3c60.7,34.5,94.8,78.9,100.4,124.3l0,0c0-50.1-33.5-100.3-100.4-138.3    L1198.6,716.2c-133.9-76.1-243.4-12.9-243.4,140.5v14C955.2,717.3,1064.7,654.2,1198.6,730.2z"/>
	</g>
	<g>
		<path class="st1" d="M4129.6,1254.8h-185.4V660.9h185.4c90.5,0,164.1,27.8,218.7,82.7c54.5,54.8,82.2,126.9,82.2,214.2    s-27.7,159.4-82.2,214.2C4293.8,1227,4220.1,1254.8,4129.6,1254.8z M4037.3,1165h92.4c63.4,0,114.3-18.2,151-54.3    c36.7-35.9,55.3-87.4,55.3-152.9c0-65-18.6-116.3-55.3-152.5c-36.8-36.2-87.6-54.6-151-54.6h-92.4V1165z"/>
		<path class="st1" d="M4608.1,1254.8h-93V660.9h93V1254.8z"/>
		<path class="st1" d="M4892.2,1267.6c-43.5,0-86.5-14.3-127.8-42.6c-41.7-28.5-69.4-69.1-82.2-120.4l-2-8l85.4-34.5l2.7,10.6    c7.6,29.6,23.2,54.8,46.3,75c23.4,20.3,48.8,30.1,77.6,30.1c29.9,0,55.7-7.9,76.6-23.4c20.3-15,30.2-34.9,30.2-60.9    c0-29.2-9.9-51-30.3-66.6c-21.7-16.6-57-32.4-105-47.1c-52.1-16.4-92.3-38.1-119.5-64.5C4716.2,888.1,4702,853,4702,811    c0-43.7,17.5-82.3,52.1-114.5c34.4-32.1,79.5-48.4,134.1-48.4c50.7,0,92.7,13,124.8,38.6c31.9,25.5,52.9,53.9,62.5,84.5l2.6,8.3    l-85.5,35.6l-2.9-10.6c-4.3-16.1-15.3-31.5-32.6-45.6c-17.1-14-39.8-21.1-67.4-21.1c-26.1,0-48.5,7.2-66.6,21.6    c-17.8,14-26.5,30.8-26.5,51.4c0,18.5,7.9,33.8,24.1,46.7c17.6,14,44.1,26.8,78.5,38.1c29.1,9.4,52.7,18.2,72,26.9    c19.4,8.7,39.4,20.5,59.4,35.1c20.7,15,36.6,34.1,47.1,56.7c10.5,22.3,15.8,48.4,15.8,77.5c0,29.3-6.2,55.9-18.3,79.1    c-12.1,23.2-28.6,41.9-48.9,55.7c-19.8,13.3-41.3,23.6-63.9,30.5C4939.7,1264.1,4916,1267.6,4892.2,1267.6z"/>
		<path class="st1" d="M5273.4,1254.8h-93V660.9h205.5c50.9,0,95.6,17.2,132.8,51.1c37.5,34,56.5,77.6,56.5,129.5    c0,51.8-19,95.4-56.5,129.5c-37.2,33.9-81.9,51.1-132.8,51.1h-112.5V1254.8z M5273.4,932.2h114.1c28.5,0,50.6-9.2,67.5-28.1    c17.2-19.3,25.6-39.8,25.6-62.6c0-22.9-8.4-43.4-25.6-62.6c-17-18.9-39.1-28.2-67.5-28.2h-114.1V932.2z"/>
		<path class="st1" d="M5918,1267.6c-86.3,0-159.5-30.3-217.5-90c-57.9-59.6-87.4-133.5-87.4-219.8s29.4-160.2,87.4-219.8    c58-59.7,131.2-90,217.5-90c85.7,0,158.8,30.4,217.2,90.4c58.2,59.9,87.7,133.7,87.7,219.4c0,86.2-29.4,160.1-87.4,219.8l0,0    C6077.5,1237.3,6004.3,1267.6,5918,1267.6z M5768.7,1116.1c40.5,41,90.7,61.7,149.3,61.7c58.7,0,108.9-20.8,149.3-61.7    c40.6-41.1,61.1-94.3,61.1-158.2s-20.5-117.2-61.1-158.2c-40.4-41-90.6-61.7-149.3-61.7c-58.6,0-108.8,20.8-149.3,61.7    c-40.5,41.1-61,94.3-61,158.2S5728.2,1075,5768.7,1116.1L5768.7,1116.1z"/>
		<path class="st1" d="M6769.6,1254.8h-92l-2.8-4.5l-276.8-444l2.3,80.7v367.8h-93V660.9h104.8l266.7,427l-2.2-80.8V660.9h93V1254.8    z"/>
		<path class="st1" d="M6975.1,1254.8h-92.9V660.9h92.9V1254.8z"/>
		<path class="st1" d="M7316.2,1254.8h-228.6V660.9H7305c47.1,0,88.6,15.8,123.3,47c34.8,31.5,52.5,71.6,52.5,119.1    c0,29.1-7.7,55.3-22.9,77.6c-11.9,17.5-26.9,31.8-45.2,42.7c22.9,10.6,42.4,26.1,58.1,46.4c19.5,25.3,29.3,54.8,29.3,87.7    c0,49.7-18.4,91.5-55,124.3C7408.9,1238.3,7365.5,1254.8,7316.2,1254.8z M7180.5,1165h139c25.7,0,45.9-8.7,61.9-26.5    c16.2-18.1,24-37.3,24-58.7c0-21.2-8.1-40.2-24.8-58c-16.5-17.7-37.5-26.3-64.4-26.3h-135.7V1165z M7180.5,907.3H7305    c25.3,0,45-8,60-24.6c15.3-16.7,22.8-34.5,22.8-54.1c0-19.7-7.2-37.3-22.1-53.8c-14.6-16.2-33.3-24.1-57.4-24.1h-127.8V907.3z"/>
		<path class="st1" d="M7922.2,1254.8h-341.7V660.9h92.9V1165h248.8V1254.8z"/>
		<path class="st1" d="M8350.9,1254.8h-354.6V660.9h354.6v89.8h-261.7v163h236v88.2h-236v163h261.7V1254.8z"/>
		<path class="st1" d="M8787.6,1267.6c-43.5,0-86.5-14.3-127.8-42.6c-41.7-28.5-69.4-69.1-82.1-120.4l-2.1-8l85.3-34.5l2.7,10.6    c7.6,29.6,23.1,54.8,46.3,75c23.4,20.3,48.8,30.1,77.6,30.1c29.9,0,55.7-7.9,76.6-23.4c20.3-15,30.2-34.9,30.2-60.9    c0-29.2-9.9-51-30.3-66.6c-21.7-16.6-57-32.4-105-47.1c-52.1-16.4-92.3-38.1-119.5-64.5c-28.1-27.2-42.3-62.3-42.3-104.4    c0-43.7,17.5-82.3,52-114.5c34.3-32.1,79.5-48.4,134.1-48.4c50.7,0,92.6,13,124.8,38.6c31.9,25.5,52.9,53.9,62.6,84.5l2.6,8.3    l-85.6,35.6l-2.8-10.6c-4.3-16.1-15.2-31.5-32.6-45.6c-17.1-14-39.8-21.1-67.4-21.1c-26.1,0-48.5,7.2-66.7,21.6    c-17.8,14-26.5,30.8-26.5,51.4c0,18.5,8,33.8,24.1,46.7c17.6,14,44.1,26.8,78.5,38.1c29.2,9.4,52.8,18.2,72,26.9    c19.4,8.7,39.4,20.5,59.4,35.1c20.8,15,36.6,34.1,47.2,56.7c10.5,22.3,15.7,48.4,15.7,77.5c0,29.3-6.1,55.9-18.2,79.1    c-12.2,23.2-28.6,41.9-49,55.7c-19.7,13.3-41.3,23.6-63.9,30.5C8835.1,1264.1,8811.5,1267.6,8787.6,1267.6z"/>
		<path class="st1" d="M9285.2,1267.6c-65.6,0-119.6-22.1-160.7-65.6c-40.9-43.4-61.5-100.7-61.5-170.3V660.9h92.9v374    c0,42.9,11.3,78,33.5,104.2c22.1,26.1,53.4,38.7,95.9,38.7c41.8,0,74-13,95.8-38.7c22.2-26.2,33.5-61.3,33.5-104.2v-374h93v370.8    c0,70.1-20.1,127.5-60,170.6C9407.7,1245.6,9353.1,1267.6,9285.2,1267.6z"/>
		<path class="st1" d="M10024.4,1254.8h-102.1l-2.8-4.3L9767.3,1022h-67.3v232.8h-92.9V660.9h205.4c51,0,95.6,17.2,132.8,51.1    c37.5,34,56.5,77.6,56.5,129.5c0,42.3-14,80.2-41.6,112.6c-25,29.3-55.9,49-92.1,58.7l156.2,226.3V1254.8z M9700.1,933.8h109.3    c27.2,0,50-8.6,69.4-26.4c19.3-17.5,28.6-39.1,28.6-65.9c0-22.9-8.4-43.4-25.6-62.6c-16.9-18.9-39.1-28.2-67.5-28.2h-114.1V933.8z    "/>
	</g>
</g>
</svg>
